<svg width="1973" height="500" viewBox="0 0 1973 500" fill="none" xmlns="http://www.w3.org/2000/svg">
<rect width="1973" height="500" fill="#062AAA"/>
<g style="mix-blend-mode:soft-light" clip-path="url(#clip0_236_5)">
<path d="M0 280.279L65.7667 302.207C131.533 324.135 263.067 367.99 394.6 382.655C526.133 396.771 657.667 383.066 789.2 360.727C920.733 339.21 1052.27 309.059 1183.8 294.943C1315.33 280.279 1446.87 280.279 1578.4 302.207C1709.93 324.135 1841.47 367.99 1907.23 389.918L1973 411.846V499.558H1907.23C1841.47 499.558 1709.93 499.558 1578.4 499.558C1446.87 499.558 1315.33 499.558 1183.8 499.558C1052.27 499.558 920.733 499.558 789.2 499.558C657.667 499.558 526.133 499.558 394.6 499.558C263.067 499.558 131.533 499.558 65.7667 499.558H0V280.279Z" fill="white"/>
</g>
<path d="M1895.2 392C1878.74 392 1865.39 405.339 1865.39 421.794C1865.39 424.448 1865.74 427.022 1866.39 429.471H1872.29C1872.93 429.471 1873.53 429.757 1873.92 430.248C1874.32 430.739 1874.48 431.383 1874.34 432.001L1872.86 439.007L1875.27 437.125C1875.64 436.838 1876.09 436.681 1876.56 436.681H1880.49C1881.24 436.681 1881.92 437.082 1882.3 437.713C1884.08 436.756 1886.25 436.354 1888.67 436.354C1891.19 436.354 1893.48 436.781 1895.1 438.044C1895.69 438.494 1896.15 439.022 1896.52 439.609L1896.78 438.343C1896.91 437.74 1897.29 437.245 1897.8 436.956C1897.6 436.424 1897.51 435.856 1897.51 435.29C1897.51 434.569 1897.66 433.845 1898.01 433.171C1898.33 432.553 1898.77 432.008 1899.34 431.582C1899.86 431.193 1900.44 430.908 1901.06 430.722C1901.07 430.72 1901.08 430.718 1901.08 430.716L1901.09 430.714C1901.7 430.541 1902.32 430.455 1902.95 430.455C1904.07 430.455 1905.17 430.734 1906.12 431.402C1907.34 432.258 1907.81 433.561 1907.81 434.873C1907.81 435.626 1907.65 436.387 1907.25 437.085C1907.12 437.334 1906.96 437.566 1906.79 437.782C1907.02 438.217 1907.1 438.727 1906.99 439.219L1904.32 451.588H1925V421.794C1925 405.339 1911.66 392 1895.2 392Z" fill="#FA7F80"/>
<path d="M1902.17 451.588L1904.94 438.776H1898.83L1896.12 451.588H1902.17Z" fill="white"/>
<path d="M1877.24 444.143L1877.79 443.692C1877.71 444.054 1877.65 444.422 1877.61 444.796L1877.24 444.143Z" fill="#FA7F80"/>
<path d="M1904.94 436.7C1904.86 436.781 1904.77 436.857 1904.68 436.929C1904.38 437.168 1904.03 437.346 1903.63 437.465C1903.23 437.585 1902.83 437.644 1902.41 437.644C1901.62 437.644 1900.95 437.456 1900.41 437.078C1900.25 436.965 1900.12 436.833 1900 436.681C1899.74 436.325 1899.61 435.862 1899.61 435.29C1899.61 434.854 1899.7 434.466 1899.88 434.129C1900.06 433.771 1900.29 433.483 1900.59 433.265C1900.91 433.026 1901.27 432.847 1901.67 432.728C1902.08 432.609 1902.51 432.549 1902.95 432.549C1903.72 432.549 1904.38 432.738 1904.91 433.116C1905.45 433.493 1905.72 434.079 1905.72 434.873C1905.72 435.33 1905.62 435.727 1905.42 436.065C1905.3 436.293 1905.15 436.499 1904.96 436.682C1904.96 436.688 1904.95 436.694 1904.94 436.7Z" fill="white"/>
<path d="M1902.17 451.588H1896.12L1898.83 438.776H1904.94L1902.17 451.588ZM1905.72 434.873C1905.72 435.33 1905.62 435.727 1905.42 436.065C1905.24 436.403 1904.99 436.691 1904.68 436.929C1904.38 437.168 1904.03 437.346 1903.63 437.465C1903.23 437.585 1902.83 437.644 1902.41 437.644C1901.62 437.644 1900.95 437.456 1900.41 437.078C1899.88 436.701 1899.61 436.105 1899.61 435.29C1899.61 434.854 1899.7 434.466 1899.88 434.129C1900.06 433.771 1900.29 433.483 1900.59 433.265C1900.91 433.026 1901.27 432.847 1901.67 432.728C1902.08 432.609 1902.51 432.549 1902.95 432.549C1903.72 432.549 1904.38 432.738 1904.91 433.116C1905.45 433.493 1905.72 434.079 1905.72 434.873Z" fill="white"/>
<path d="M1888.67 438.449C1891.03 438.449 1892.75 438.866 1893.82 439.7C1894.95 440.574 1895.52 442.024 1895.52 444.05C1895.52 445.301 1895.31 446.433 1894.89 447.446C1894.48 448.44 1893.89 449.264 1893.14 449.919C1891.63 451.19 1889.44 451.826 1886.58 451.826C1884.14 451.826 1882.39 451.359 1881.33 450.426C1880.2 449.453 1879.64 447.993 1879.64 446.046C1879.64 444.755 1879.89 443.583 1880.41 442.53C1880.95 441.478 1881.71 440.604 1882.7 439.909C1884.16 438.935 1886.14 438.449 1888.67 438.449ZM1886.64 449.8C1887.14 449.8 1887.56 449.522 1887.92 448.966C1888.3 448.41 1888.6 447.734 1888.81 446.94C1889.03 446.126 1889.19 445.291 1889.29 444.437C1889.41 443.563 1889.47 442.808 1889.47 442.173C1889.47 441.617 1889.41 441.2 1889.29 440.922C1889.19 440.624 1888.96 440.475 1888.61 440.475C1888.07 440.475 1887.6 440.763 1887.2 441.339C1886.83 441.915 1886.52 442.6 1886.28 443.394C1886.04 444.189 1885.86 445.003 1885.74 445.838C1885.65 446.672 1885.6 447.347 1885.6 447.864C1885.6 449.155 1885.94 449.8 1886.64 449.8Z" fill="white"/>
<path d="M1869.61 444.199L1876.56 438.776H1880.49L1874.56 443.633L1879 451.588H1872.32L1869.28 445.599L1868.03 451.588H1861.95L1866.19 431.566L1872.29 431.566L1869.61 444.199Z" fill="white"/>
<path d="M1852.45 445.599C1852.37 446.036 1852.31 446.453 1852.27 446.851C1852.25 447.248 1852.24 447.605 1852.24 447.923C1852.24 448.102 1852.25 448.3 1852.27 448.519C1852.29 448.737 1852.33 448.946 1852.39 449.145C1852.47 449.323 1852.57 449.482 1852.69 449.621C1852.83 449.741 1853.02 449.8 1853.25 449.8C1853.43 449.8 1853.63 449.741 1853.85 449.621C1854.09 449.502 1854.32 449.333 1854.54 449.115C1854.77 448.896 1854.99 448.628 1855.19 448.31C1855.41 447.993 1855.58 447.635 1855.7 447.238H1860.59L1859.81 450.426C1859.41 450.684 1858.96 450.902 1858.44 451.081C1857.92 451.26 1857.38 451.409 1856.8 451.528C1856.23 451.627 1855.64 451.697 1855.04 451.737C1854.45 451.796 1853.88 451.826 1853.34 451.826C1852.35 451.826 1851.43 451.737 1850.57 451.558C1849.72 451.379 1848.97 451.071 1848.34 450.634C1847.7 450.197 1847.19 449.621 1846.82 448.906C1846.46 448.171 1846.28 447.268 1846.28 446.195C1846.28 445.222 1846.43 444.268 1846.73 443.335C1847.05 442.401 1847.56 441.577 1848.28 440.862C1849.01 440.127 1849.99 439.541 1851.2 439.104C1852.43 438.667 1853.96 438.449 1855.79 438.449C1857.77 438.449 1859.27 438.757 1860.26 439.372C1861.27 439.988 1861.78 440.951 1861.78 442.262C1861.78 442.799 1861.7 443.384 1861.54 444.02C1861.38 444.636 1861.14 445.162 1860.82 445.599H1852.45ZM1856.41 442.054C1856.41 441.438 1856.31 441.021 1856.12 440.802C1855.92 440.584 1855.68 440.475 1855.4 440.475C1855.08 440.475 1854.78 440.584 1854.51 440.802C1854.25 441.001 1854.01 441.279 1853.79 441.637C1853.57 441.974 1853.37 442.372 1853.2 442.828C1853.02 443.265 1852.87 443.732 1852.75 444.229H1856.15C1856.19 443.99 1856.23 443.742 1856.26 443.484C1856.3 443.265 1856.33 443.027 1856.35 442.769C1856.39 442.511 1856.41 442.272 1856.41 442.054Z" fill="white"/>
<path d="M1833.96 438.776H1838.82L1839.27 441.011H1839.47C1839.93 440.296 1840.52 439.69 1841.23 439.193C1841.95 438.697 1842.89 438.449 1844.06 438.449C1844.14 438.449 1844.26 438.459 1844.42 438.478C1844.6 438.478 1844.79 438.508 1844.99 438.568C1845.21 438.608 1845.42 438.677 1845.64 438.776C1845.88 438.856 1846.11 438.975 1846.33 439.134L1845.02 445.271H1841.77C1841.73 444.04 1841.62 443.186 1841.44 442.709C1841.26 442.213 1840.97 441.964 1840.58 441.964C1840.38 441.964 1840.16 442.014 1839.92 442.113C1839.7 442.193 1839.47 442.381 1839.24 442.679L1837.33 451.588H1831.25L1833.96 438.776Z" fill="white"/>
<path d="M1823.79 438.449C1826.16 438.449 1827.88 438.866 1828.95 439.7C1830.08 440.574 1830.65 442.024 1830.65 444.05C1830.65 445.301 1830.44 446.433 1830.02 447.446C1829.6 448.44 1829.02 449.264 1828.26 449.919C1826.75 451.19 1824.57 451.826 1821.71 451.826C1819.26 451.826 1817.51 451.359 1816.46 450.426C1815.33 449.453 1814.76 447.993 1814.76 446.046C1814.76 444.755 1815.02 443.583 1815.54 442.53C1816.07 441.478 1816.84 440.604 1817.83 439.909C1819.28 438.935 1821.27 438.449 1823.79 438.449ZM1821.77 449.8C1822.26 449.8 1822.69 449.522 1823.05 448.966C1823.42 448.41 1823.72 447.734 1823.94 446.94C1824.16 446.126 1824.32 445.291 1824.42 444.437C1824.54 443.563 1824.6 442.808 1824.6 442.173C1824.6 441.617 1824.54 441.2 1824.42 440.922C1824.32 440.624 1824.09 440.475 1823.73 440.475C1823.2 440.475 1822.73 440.763 1822.33 441.339C1821.95 441.915 1821.65 442.6 1821.41 443.394C1821.17 444.189 1820.99 445.003 1820.87 445.838C1820.77 446.672 1820.72 447.347 1820.72 447.864C1820.72 449.155 1821.07 449.8 1821.77 449.8Z" fill="white"/>
<path d="M1805.73 440.892L1813.09 432.639H1816.46L1809.79 439.879L1814.32 451.588H1807.82L1805.2 443.275L1803.44 451.588H1797L1801.02 432.669H1807.49L1805.73 440.892Z" fill="white"/>
<g filter="url(#filter0_d_236_5)">
<path d="M801.461 210V162.32H817.077C820.064 162.32 822.688 162.917 824.949 164.112C827.21 165.307 828.981 166.992 830.261 169.168C831.541 171.301 832.181 173.776 832.181 176.592C832.181 180.048 831.221 182.992 829.301 185.424C827.381 187.856 824.8 189.477 821.557 190.288L832.949 210H829.173L817.077 188.816L820.533 190.8H804.661V210H801.461ZM804.661 187.92H817.077C819.424 187.92 821.472 187.451 823.221 186.512C825.013 185.531 826.421 184.187 827.445 182.48C828.469 180.731 828.981 178.747 828.981 176.528C828.981 174.267 828.469 172.304 827.445 170.64C826.464 168.933 825.077 167.611 823.285 166.672C821.493 165.691 819.424 165.2 817.077 165.2H804.661V187.92ZM854.997 210.768C851.797 210.768 848.917 210 846.357 208.464C843.797 206.885 841.77 204.773 840.277 202.128C838.783 199.44 838.036 196.453 838.036 193.168C838.036 189.84 838.762 186.853 840.213 184.208C841.663 181.52 843.605 179.408 846.037 177.872C848.511 176.336 851.285 175.568 854.357 175.568C856.533 175.568 858.559 175.973 860.437 176.784C862.314 177.595 863.935 178.725 865.301 180.176C866.709 181.627 867.797 183.333 868.565 185.296C869.333 187.216 869.717 189.307 869.717 191.568C869.717 191.995 869.695 192.4 869.653 192.784C869.653 193.168 869.61 193.595 869.525 194.064H839.509V191.504H867.861L866.773 192.336C866.901 189.691 866.431 187.323 865.365 185.232C864.298 183.099 862.805 181.413 860.885 180.176C858.965 178.896 856.789 178.256 854.357 178.256C851.839 178.256 849.557 178.917 847.509 180.24C845.503 181.563 843.903 183.355 842.709 185.616C841.514 187.835 840.917 190.352 840.917 193.168C840.917 195.984 841.535 198.523 842.773 200.784C844.01 203.045 845.674 204.837 847.765 206.16C849.898 207.44 852.309 208.08 854.997 208.08C857.429 208.08 859.626 207.504 861.589 206.352C863.551 205.2 865.13 203.579 866.325 201.488L868.757 202.768C867.946 204.389 866.837 205.819 865.429 207.056C864.021 208.251 862.421 209.168 860.629 209.808C858.879 210.448 857.002 210.768 854.997 210.768ZM888.481 210.768C886.433 210.768 884.577 210.384 882.913 209.616C881.291 208.805 879.99 207.696 879.009 206.288C878.027 204.837 877.536 203.173 877.536 201.296C877.536 199.76 877.878 198.288 878.561 196.88C879.286 195.429 880.438 194.171 882.017 193.104C883.638 192.037 885.793 191.291 888.481 190.864L902.561 188.496V191.248L889.441 193.424C886.113 193.979 883.787 194.96 882.465 196.368C881.142 197.776 880.481 199.376 880.481 201.168C880.481 203.301 881.27 204.987 882.849 206.224C884.427 207.461 886.39 208.08 888.737 208.08C891.339 208.08 893.579 207.461 895.457 206.224C897.377 204.987 898.87 203.365 899.937 201.36C901.003 199.312 901.537 197.115 901.537 194.768V186.64C901.537 184.123 900.662 182.117 898.913 180.624C897.206 179.088 894.923 178.32 892.065 178.32C889.889 178.32 887.883 178.853 886.049 179.92C884.214 180.987 882.785 182.395 881.76 184.144L879.201 182.8C879.841 181.52 880.779 180.347 882.017 179.28C883.297 178.171 884.79 177.275 886.497 176.592C888.203 175.909 890.059 175.568 892.065 175.568C894.497 175.568 896.63 176.037 898.465 176.976C900.342 177.915 901.793 179.216 902.817 180.88C903.883 182.544 904.417 184.464 904.417 186.64V210H901.537V202.64H901.793C901.238 204.048 900.321 205.371 899.041 206.608C897.761 207.845 896.225 208.848 894.433 209.616C892.641 210.384 890.657 210.768 888.481 210.768ZM931.055 210.768C927.94 210.768 925.103 210 922.543 208.464C920.025 206.928 918.02 204.837 916.527 202.192C915.033 199.504 914.286 196.496 914.286 193.168C914.286 189.797 915.033 186.789 916.527 184.144C918.02 181.499 920.025 179.408 922.543 177.872C925.103 176.336 927.94 175.568 931.055 175.568C933.145 175.568 935.065 175.909 936.815 176.592C938.607 177.275 940.164 178.213 941.487 179.408C942.852 180.603 943.919 181.968 944.687 183.504L942.255 184.848C941.06 182.715 939.503 181.093 937.583 179.984C935.663 178.832 933.487 178.256 931.055 178.256C928.452 178.256 926.105 178.875 924.015 180.112C921.924 181.349 920.26 183.099 919.023 185.36C917.785 187.579 917.167 190.181 917.167 193.168C917.167 196.155 917.785 198.779 919.023 201.04C920.26 203.259 921.924 204.987 924.015 206.224C926.105 207.461 928.452 208.08 931.055 208.08C933.487 208.08 935.663 207.504 937.583 206.352C939.503 205.2 941.06 203.579 942.255 201.488L944.687 202.768C943.919 204.261 942.852 205.627 941.487 206.864C940.164 208.059 938.607 209.019 936.815 209.744C935.065 210.427 933.145 210.768 931.055 210.768ZM966.218 210.384C963.615 210.384 961.61 209.68 960.202 208.272C958.794 206.864 958.09 204.752 958.09 201.936V178.896H951.69V176.336H954.89C955.999 176.336 956.81 176.059 957.322 175.504C957.834 174.949 958.09 174.075 958.09 172.88V168.4H960.97V176.336H968.266V178.896H960.97V201.936C960.97 202.704 961.076 203.536 961.29 204.432C961.546 205.328 962.058 206.096 962.826 206.736C963.636 207.333 964.852 207.632 966.474 207.632C966.815 207.632 967.242 207.611 967.753 207.568C968.266 207.525 968.671 207.483 968.97 207.44V210C968.543 210.128 968.031 210.213 967.434 210.256C966.879 210.341 966.474 210.384 966.218 210.384ZM989.774 210V162.32H992.334L1022.16 205.008H1021.13V162.32H1024.33V210H1021.77L991.758 167.056H992.974V210H989.774ZM1045.86 210.768C1043.81 210.768 1041.95 210.384 1040.29 209.616C1038.67 208.805 1037.36 207.696 1036.38 206.288C1035.4 204.837 1034.91 203.173 1034.91 201.296C1034.91 199.76 1035.25 198.288 1035.94 196.88C1036.66 195.429 1037.81 194.171 1039.39 193.104C1041.01 192.037 1043.17 191.291 1045.86 190.864L1059.94 188.496V191.248L1046.82 193.424C1043.49 193.979 1041.16 194.96 1039.84 196.368C1038.52 197.776 1037.86 199.376 1037.86 201.168C1037.86 203.301 1038.64 204.987 1040.22 206.224C1041.8 207.461 1043.76 208.08 1046.11 208.08C1048.71 208.08 1050.95 207.461 1052.83 206.224C1054.75 204.987 1056.24 203.365 1057.31 201.36C1058.38 199.312 1058.91 197.115 1058.91 194.768V186.64C1058.91 184.123 1058.04 182.117 1056.29 180.624C1054.58 179.088 1052.3 178.32 1049.44 178.32C1047.26 178.32 1045.26 178.853 1043.42 179.92C1041.59 180.987 1040.16 182.395 1039.14 184.144L1036.58 182.8C1037.22 181.52 1038.15 180.347 1039.39 179.28C1040.67 178.171 1042.16 177.275 1043.87 176.592C1045.58 175.909 1047.43 175.568 1049.44 175.568C1051.87 175.568 1054 176.037 1055.84 176.976C1057.72 177.915 1059.17 179.216 1060.19 180.88C1061.26 182.544 1061.79 184.464 1061.79 186.64V210H1058.91V202.64H1059.17C1058.61 204.048 1057.7 205.371 1056.42 206.608C1055.14 207.845 1053.6 208.848 1051.81 209.616C1050.02 210.384 1048.03 210.768 1045.86 210.768ZM1084.09 210.384C1081.49 210.384 1079.48 209.68 1078.08 208.272C1076.67 206.864 1075.96 204.752 1075.96 201.936V178.896H1069.56V176.336H1072.76C1073.87 176.336 1074.68 176.059 1075.2 175.504C1075.71 174.949 1075.96 174.075 1075.96 172.88V168.4H1078.84V176.336H1086.14V178.896H1078.84V201.936C1078.84 202.704 1078.95 203.536 1079.16 204.432C1079.42 205.328 1079.93 206.096 1080.7 206.736C1081.51 207.333 1082.73 207.632 1084.35 207.632C1084.69 207.632 1085.12 207.611 1085.63 207.568C1086.14 207.525 1086.55 207.483 1086.84 207.44V210C1086.42 210.128 1085.91 210.213 1085.31 210.256C1084.75 210.341 1084.35 210.384 1084.09 210.384ZM1096.69 210V176.336H1099.57V210H1096.69ZM1096.69 169.36V162.32H1099.57V169.36H1096.69ZM1120.16 210L1106.6 176.336H1109.86L1122.34 207.504H1121.12L1133.67 176.336H1137L1123.24 210H1120.16ZM1158.93 210.768C1155.73 210.768 1152.85 210 1150.29 208.464C1147.73 206.885 1145.71 204.773 1144.21 202.128C1142.72 199.44 1141.97 196.453 1141.97 193.168C1141.97 189.84 1142.7 186.853 1144.15 184.208C1145.6 181.52 1147.54 179.408 1149.97 177.872C1152.45 176.336 1155.22 175.568 1158.29 175.568C1160.47 175.568 1162.5 175.973 1164.37 176.784C1166.25 177.595 1167.87 178.725 1169.24 180.176C1170.65 181.627 1171.73 183.333 1172.5 185.296C1173.27 187.216 1173.65 189.307 1173.65 191.568C1173.65 191.995 1173.63 192.4 1173.59 192.784C1173.59 193.168 1173.55 193.595 1173.46 194.064H1143.45V191.504H1171.8L1170.71 192.336C1170.84 189.691 1170.37 187.323 1169.3 185.232C1168.24 183.099 1166.74 181.413 1164.82 180.176C1162.9 178.896 1160.73 178.256 1158.29 178.256C1155.78 178.256 1153.49 178.917 1151.45 180.24C1149.44 181.563 1147.84 183.355 1146.65 185.616C1145.45 187.835 1144.85 190.352 1144.85 193.168C1144.85 195.984 1145.47 198.523 1146.71 200.784C1147.95 203.045 1149.61 204.837 1151.7 206.16C1153.84 207.44 1156.25 208.08 1158.93 208.08C1161.37 208.08 1163.56 207.504 1165.53 206.352C1167.49 205.2 1169.07 203.579 1170.26 201.488L1172.69 202.768C1171.88 204.389 1170.77 205.819 1169.37 207.056C1167.96 208.251 1166.36 209.168 1164.57 209.808C1162.82 210.448 1160.94 210.768 1158.93 210.768ZM345.335 339.536C338.508 339.536 332.151 338.299 326.263 335.824C320.375 333.349 315.212 329.893 310.775 325.456C306.337 321.019 302.881 315.813 300.407 309.84C297.932 303.867 296.695 297.339 296.695 290.256C296.695 283.173 297.889 276.645 300.279 270.672C302.668 264.613 306.039 259.408 310.391 255.056C314.743 250.619 319.82 247.205 325.623 244.816C331.511 242.341 337.911 241.104 344.823 241.104C351.735 241.104 357.921 242.256 363.382 244.56C368.929 246.864 373.623 249.936 377.463 253.776C381.303 257.616 384.033 261.883 385.655 266.576L368.119 275.024C366.497 270.416 363.639 266.619 359.543 263.632C355.532 260.56 350.625 259.024 344.823 259.024C339.191 259.024 334.241 260.347 329.975 262.992C325.708 265.637 322.38 269.307 319.991 274C317.687 278.608 316.535 284.027 316.535 290.256C316.535 296.485 317.772 301.947 320.247 306.64C322.721 311.333 326.092 315.003 330.359 317.648C334.711 320.293 339.703 321.616 345.335 321.616C349.687 321.616 353.74 320.805 357.495 319.184C361.335 317.477 364.407 315.045 366.711 311.888C369.1 308.731 370.295 304.933 370.295 300.496V292.56L379.383 300.24H344.823V283.6H390.135V293.712C390.135 301.477 388.855 308.261 386.295 314.064C383.735 319.781 380.279 324.56 375.927 328.4C371.66 332.155 366.839 334.971 361.463 336.848C356.172 338.64 350.796 339.536 345.335 339.536ZM402.385 338V242.64H466.514V259.92H422.226V281.552H463.954V298.832H422.226V320.72H466.514V338H402.385ZM494.913 338V259.92H470.721V242.64H538.561V259.92H514.753V338H494.913ZM571.385 338V242.64H607.866C614.436 242.64 620.239 243.792 625.274 246.096C630.394 248.4 634.404 251.813 637.306 256.336C640.207 260.859 641.658 266.448 641.658 273.104C641.658 279.589 640.164 285.136 637.178 289.744C634.191 294.267 630.18 297.68 625.146 299.984L646.906 338H624.634L601.082 295.888L613.882 303.44H591.226V338H571.385ZM591.226 286.16H607.994C610.81 286.16 613.242 285.605 615.29 284.496C617.338 283.387 618.916 281.851 620.026 279.888C621.22 277.925 621.818 275.664 621.818 273.104C621.818 270.459 621.22 268.155 620.026 266.192C618.916 264.229 617.338 262.693 615.29 261.584C613.242 260.475 610.81 259.92 607.994 259.92H591.226V286.16ZM649.721 338L681.977 242.64H708.345L740.601 338H718.969L712.569 318.544H677.625L671.225 338H649.721ZM683.129 301.264H707.065L692.473 256.208H697.849L683.129 301.264ZM750.51 338V242.64H765.743L816.943 310.096L808.751 312.016V242.64H828.591V338H813.231L762.927 270.032L770.351 268.112V338H750.51ZM845.51 338V242.64H876.615C886.94 242.64 895.9 244.688 903.495 248.784C911.089 252.88 916.977 258.512 921.159 265.68C925.34 272.848 927.431 281.04 927.431 290.256C927.431 299.472 925.34 307.707 921.159 314.96C916.977 322.128 911.089 327.76 903.495 331.856C895.9 335.952 886.94 338 876.615 338H845.51ZM865.351 320.72H877.127C883.356 320.72 888.732 319.483 893.255 317.008C897.777 314.448 901.276 310.907 903.751 306.384C906.311 301.776 907.59 296.4 907.59 290.256C907.59 284.027 906.311 278.651 903.751 274.128C901.276 269.605 897.777 266.107 893.255 263.632C888.732 261.157 883.356 259.92 877.127 259.92H865.351V320.72ZM987.88 339.536C980.712 339.536 974.056 338.299 967.912 335.824C961.768 333.349 956.392 329.893 951.784 325.456C947.261 320.933 943.72 315.685 941.16 309.712C938.6 303.739 937.32 297.253 937.32 290.256C937.32 283.259 938.557 276.773 941.032 270.8C943.592 264.827 947.133 259.621 951.656 255.184C956.264 250.747 961.64 247.291 967.784 244.816C973.928 242.341 980.626 241.104 987.88 241.104C995.133 241.104 1001.83 242.341 1007.98 244.816C1014.12 247.291 1019.45 250.747 1023.98 255.184C1028.58 259.621 1032.12 264.827 1034.6 270.8C1037.16 276.773 1038.44 283.259 1038.44 290.256C1038.44 297.253 1037.16 303.739 1034.6 309.712C1032.04 315.685 1028.46 320.933 1023.85 325.456C1019.32 329.893 1013.99 333.349 1007.85 335.824C1001.7 338.299 995.048 339.536 987.88 339.536ZM987.88 321.616C992.232 321.616 996.242 320.848 999.912 319.312C1003.67 317.776 1006.95 315.643 1009.77 312.912C1012.58 310.096 1014.76 306.768 1016.3 302.928C1017.83 299.088 1018.6 294.864 1018.6 290.256C1018.6 285.648 1017.83 281.467 1016.3 277.712C1014.76 273.872 1012.58 270.544 1009.77 267.728C1006.95 264.912 1003.67 262.779 999.912 261.328C996.242 259.792 992.232 259.024 987.88 259.024C983.528 259.024 979.474 259.792 975.72 261.328C972.05 262.779 968.808 264.912 965.992 267.728C963.176 270.544 961 273.872 959.464 277.712C957.928 281.467 957.16 285.648 957.16 290.256C957.16 294.864 957.928 299.088 959.464 302.928C961 306.768 963.176 310.096 965.992 312.912C968.808 315.643 972.05 317.776 975.72 319.312C979.474 320.848 983.528 321.616 987.88 321.616ZM1052.51 338V242.64H1071.71L1107.42 290H1098.46L1133.15 242.64H1152.35V338H1132.51V264.528L1140.45 266.32L1103.71 313.68H1101.15L1065.69 266.32L1072.35 264.528V338H1052.51ZM1217.86 338L1185.22 242.64H1206.98L1231.56 319.184H1227.2L1251.78 242.64H1273.54L1240.9 338H1217.86ZM1271.22 338L1303.48 242.64H1329.84L1362.1 338H1340.47L1334.07 318.544H1299.12L1292.72 338H1271.22ZM1304.63 301.264H1328.56L1313.97 256.208H1319.35L1304.63 301.264ZM1372.01 338V242.64H1391.85V320.72H1432.17V338H1372.01ZM1477.4 339.536C1469.89 339.536 1463.19 337.957 1457.3 334.8C1451.41 331.643 1446.76 327.333 1443.35 321.872C1440.02 316.325 1438.36 310.053 1438.36 303.056V242.64H1458.2V301.776C1458.2 305.531 1459.01 308.944 1460.63 312.016C1462.34 315.003 1464.64 317.349 1467.54 319.056C1470.44 320.763 1473.73 321.616 1477.4 321.616C1481.15 321.616 1484.44 320.763 1487.25 319.056C1490.16 317.349 1492.42 315.003 1494.04 312.016C1495.75 308.944 1496.6 305.531 1496.6 301.776V242.64H1516.44V303.056C1516.44 310.053 1514.73 316.325 1511.32 321.872C1507.99 327.333 1503.38 331.643 1497.49 334.8C1491.61 337.957 1484.91 339.536 1477.4 339.536ZM1532.14 338V242.64H1596.26V259.92H1551.98V281.552H1593.7V298.832H1551.98V320.72H1596.26V338H1532.14ZM1642.2 339.536C1636.23 339.536 1630.59 338.469 1625.3 336.336C1620.1 334.117 1615.57 331.003 1611.73 326.992C1607.98 322.981 1605.16 318.245 1603.29 312.784L1619.54 305.488C1621.93 310.693 1625.22 314.789 1629.4 317.776C1633.67 320.763 1638.36 322.256 1643.48 322.256C1646.21 322.256 1648.56 321.829 1650.52 320.976C1652.48 320.123 1654.02 318.971 1655.13 317.52C1656.24 315.984 1656.79 314.192 1656.79 312.144C1656.79 309.925 1656.11 308.048 1654.74 306.512C1653.38 304.891 1651.24 303.611 1648.34 302.672L1629.65 296.528C1622.06 294.053 1616.34 290.555 1612.5 286.032C1608.66 281.424 1606.74 275.92 1606.74 269.52C1606.74 263.888 1608.11 258.939 1610.84 254.672C1613.65 250.405 1617.54 247.077 1622.49 244.688C1627.52 242.299 1633.28 241.104 1639.77 241.104C1645.48 241.104 1650.77 242.085 1655.64 244.048C1660.5 246.011 1664.68 248.784 1668.18 252.368C1671.77 255.952 1674.45 260.261 1676.25 265.296L1660.12 272.592C1658.33 268.155 1655.64 264.699 1652.05 262.224C1648.47 259.664 1644.37 258.384 1639.77 258.384C1637.12 258.384 1634.77 258.811 1632.73 259.664C1630.68 260.517 1629.1 261.755 1627.99 263.376C1626.88 264.912 1626.33 266.704 1626.33 268.752C1626.33 270.971 1627.05 272.933 1628.5 274.64C1629.95 276.261 1632.13 277.541 1635.03 278.48L1653.33 284.368C1661.01 286.843 1666.73 290.299 1670.49 294.736C1674.33 299.173 1676.25 304.592 1676.25 310.992C1676.25 316.539 1674.8 321.488 1671.89 325.84C1668.99 330.107 1664.98 333.477 1659.86 335.952C1654.83 338.341 1648.94 339.536 1642.2 339.536Z" fill="white"/>
</g>
<defs>
<filter id="filter0_d_236_5" x="292.694" y="160.32" width="1387.55" height="185.216" filterUnits="userSpaceOnUse" color-interpolation-filters="sRGB">
<feFlood flood-opacity="0" result="BackgroundImageFix"/>
<feColorMatrix in="SourceAlpha" type="matrix" values="0 0 0 0 0 0 0 0 0 0 0 0 0 0 0 0 0 0 127 0" result="hardAlpha"/>
<feOffset dy="2"/>
<feGaussianBlur stdDeviation="2"/>
<feComposite in2="hardAlpha" operator="out"/>
<feColorMatrix type="matrix" values="0 0 0 0 0 0 0 0 0 0 0 0 0 0 0 0 0 0 0.25 0"/>
<feBlend mode="normal" in2="BackgroundImageFix" result="effect1_dropShadow_236_5"/>
<feBlend mode="normal" in="SourceGraphic" in2="effect1_dropShadow_236_5" result="shape"/>
</filter>
<clipPath id="clip0_236_5">
<rect width="1973" height="438.557" fill="white" transform="translate(0 61)"/>
</clipPath>
</defs>
</svg>
